<?xml version="1.0" encoding="UTF-8"?><svg id="a" data-name="图层 1" xmlns="http://www.w3.org/2000/svg" viewBox="0 0 80 80"><path d="M67.83,25.72c.04,.62,.04,1.23,.04,1.86,0,18.98-14.45,40.86-40.86,40.86h0c-7.8,0-15.44-2.24-22.01-6.45,1.13,.14,2.28,.2,3.42,.21,6.47,0,12.75-2.16,17.84-6.16-6.15-.12-11.53-4.12-13.42-9.97,2.15,.42,4.37,.33,6.48-.25-6.7-1.35-11.52-7.24-11.52-14.08v-.18c2,1.11,4.23,1.73,6.52,1.8-6.31-4.22-8.26-12.61-4.44-19.18,7.29,8.97,18.05,14.43,29.6,15-1.16-4.99,.42-10.21,4.15-13.72,5.78-5.44,14.88-5.16,20.32,.62,3.22-.63,6.3-1.81,9.12-3.49-1.07,3.32-3.32,6.15-6.31,7.94,2.85-.34,5.63-1.1,8.25-2.26-1.93,2.89-4.36,5.41-7.17,7.44h0Z" style="fill: #1d9bf0;"/></svg>